PathFileType	4	(X/Y/Z)	Run_200 02
DataRate	CameraRate	NumFrames	NumMarkers	Units	OrigDataRate	OrigDataStartFrame	OrigNumFrames
100	100	4	42	mm	100	71	128
Frame#	Time	LASI			RASI			LPSI			RPSI			RTH1			RTH2			RTH3			LTH1			LTH2			LTH3			RTB1			RTB2			RTB3			LTB1			LTB2			LTB3			RCAL			RTOE			RMT5			LCAL			LTOE			LMT5			LACR			RACR			CLAV			C7			RUA1			RUA2			RUA3			RLEL			RMEL			LUA1			LUA2			LUA3			LLEL			LMEL			RFAsuperior			RFAradius			RFAulna			LFAsuperior			LFAradius			LFAulna			
		X1	Y1	Z1	X2	Y2	Z2	X3	Y3	Z3	X4	Y4	Z4	X5	Y5	Z5	X6	Y6	Z6	X7	Y7	Z7	X8	Y8	Z8	X9	Y9	Z9	X10	Y10	Z10	X11	Y11	Z11	X12	Y12	Z12	X13	Y13	Z13	X14	Y14	Z14	X15	Y15	Z15	X16	Y16	Z16	X17	Y17	Z17	X18	Y18	Z18	X19	Y19	Z19	X20	Y20	Z20	X21	Y21	Z21	X22	Y22	Z22	X23	Y23	Z23	X24	Y24	Z24	X25	Y25	Z25	X26	Y26	Z26	X27	Y27	Z27	X28	Y28	Z28	X29	Y29	Z29	X30	Y30	Z30	X31	Y31	Z31	X32	Y32	Z32	X33	Y33	Z33	X34	Y34	Z34	X35	Y35	Z35	X36	Y36	Z36	X37	Y37	Z37	X38	Y38	Z38	X39	Y39	Z39	X40	Y40	Z40	X41	Y41	Z41	X42	Y42	Z42	

55	1.95	707.1976979999999	1003.552061	-453.31412	706.0113260000001	987.918897	-182.204726	534.660712	1014.76018	-368.475702	535.353487	1008.122103	-265.115785	640.431187	787.960143	-152.243652	754.612299	706.83305	-154.349757	726.6628449999999	581.332239	-186.120258	651.024012	810.734289	-494.652032	737.554678	690.907793	-469.778872	698.8584070000001	568.174408	-447.252618	729.843925	373.862518	-241.877087	664.27232	367.949226	-179.975978	584.570347	290.167131	-238.915509	700.100053	335.792541	-371.839728	623.551657	272.222423	-423.426241	619.796027	197.858739	-353.186121	411.901127	306.990166	-254.392311	526.347383	110.920605	-250.485563	481.140247	145.020581	-168.230535	455.894171	99.631221	-339.532353	686.906829	69.421392	-326.629828	632.588649	54.576877	-417.926711	714.963834	1442.528784	-512.450225	704.915399	1482.068803	-175.005528	759.043176	1401.776058	-306.846562	648.848663	1492.665036	-346.894591	639.397217	1412.596792	-94.756597	563.10996	1347.945286	-123.873511	580.765039	1300.145656	-66.807123	531.381398	1204.74532	-34.494924	515.433818	1190.542589	-111.85413	670.978554	1346.463144	-583.2301	615.64795	1264.741109	-551.495907	629.543016	1203.037886	-605.448388	637.165808	1117.491113	-628.714388	605.302181	1108.382692	-556.821209	618.996076	1137.284579	-24.529456	745.438537	1044.981661	-59.332865	688.879241	1000.434786	-46.646325	740.699931	1087.416588	-603.445614	870.393099	1049.453846	-510.477512	854.648406	988.695138	-545.749579	
56	1.96	706.724562	1005.654139	-453.667263	705.558142	991.649182	-183.121982	534.505453	1018.210729	-368.229557	534.89376	1011.313266	-265.736694	642.989716	791.471273	-151.471012	759.880594	713.417236	-153.952722	734.261347	587.660064	-186.144699	646.685684	813.311358	-494.498597	728.830831	691.307919	-469.383965	685.47954	569.365056	-447.051723	744.806877	378.85883	-242.756699	679.9773709999999	368.93645	-180.425843	603.8660630000001	286.42365	-239.095793	680.755544	335.403103	-368.182642	604.787456	273.514264	-423.675643	601.050578	199.147418	-352.959179	429.947721	293.992822	-254.096722	557.423628	106.811399	-252.455421	510.458702	136.762461	-168.702594	436.222738	100.993395	-339.891648	667.07733	69.27949599999999	-326.732445	612.437533	53.820843	-417.166495	716.005911	1446.893903	-511.874349	703.455696	1485.520273	-174.624764	758.809315	1405.376562	-306.1825	648.921649	1496.236353	-346.805681	636.029622	1416.790415	-95.331131	559.203965	1353.900699	-126.20299	575.098386	1305.456769	-68.556862	522.921419	1210.943603	-37.577399	508.583322	1197.49572	-115.428342	675.488336	1349.77567	-583.092581	621.409278	1267.381934	-550.637329	635.559412	1204.786617	-602.0679689999999	646.7090020000001	1119.028497	-625.431239	615.877374	1109.534085	-553.180279	608.217345	1140.594341	-26.626556	733.075453	1045.319844	-60.184974	675.282017	1002.484099	-50.006131	751.76715	1093.997935	-598.913057	881.8998810000001	1063.184774	-504.053485	869.477297	1001.250872	-538.477137	
57	1.97	706.719442	1008.251787	-453.850528	705.416681	996.147001	-183.969509	534.68243	1022.433508	-368.030789	534.768104	1015.285871	-266.274859	645.551069	795.748792	-150.242809	764.710553	720.624336	-153.654745	740.905928	594.352435	-186.180617	642.858681	816.442966	-494.365631	719.632018	692.252918	-468.690064	671.475495	571.477684	-446.663738	758.81865	384.364239	-243.326541	695.210108	369.891246	-181.080227	623.407566	282.420343	-239.674881	660.9370269999999	336.314702	-364.760463	585.538083	275.526566	-423.99674	582.123577	200.986908	-352.65987	448.946822	279.48378	-253.700152	589.637204	102.571341	-254.242783	540.988656	128.184648	-169.363015	416.69561	102.575383	-340.442515	646.963165	68.626878	-326.722871	592.340984	53.49948	-416.803332	717.167416	1452.399499	-511.078147	701.958699	1489.577559	-174.075747	758.754847	1409.833726	-305.399822	649.083231	1500.393983	-346.524181	632.516884	1421.773908	-95.835545	555.2830740000001	1360.613681	-128.354276	569.370085	1311.615236	-69.99109900000001	514.427403	1218.109786	-40.591096	501.700664	1205.420929	-118.935527	678.823067	1354.472035	-582.237826	626.271079	1271.203881	-550.214798	641.435591	1208.121215	-598.775704	655.317674	1122.33305	-622.009285	625.346714	1112.801167	-549.2830310000001	597.8494889999999	1145.728964	-28.78684	721.239207	1047.934343	-60.993031	662.563956	1006.470645	-52.888216	761.67939	1102.31433	-594.615608	891.853301	1078.652913	-497.745685	882.704058	1015.650125	-531.116598	
58	1.98	707.172632	1011.317609	-453.753017	705.61873	1001.320165	-184.64277	535.164458	1027.306001	-367.861575	535.0085	1019.945112	-266.657895	648.470404	801.209105	-148.573115	768.919986	728.214652	-153.434103	746.506646	601.266686	-185.873597	638.848644	819.7641589999999	-493.876225	710.232982	693.729545	-467.587614	657.1821629999999	574.390884	-446.053453	772.0629300000001	389.922665	-244.012114	709.956111	370.665755	-181.744886	643.19471	278.302586	-240.635539	641.14369	338.641402	-362.401386	566.167783	278.271691	-424.27464	563.119011	203.443678	-352.448411	469.09904	263.707357	-253.428773	622.840613	98.319929	-255.747561	572.726053	119.542626	-170.23187	397.458556	104.873564	-341.183903	626.459868	67.703695	-326.673977	572.3571009999999	53.710282	-416.992066	718.349789	1458.779434	-510.069284	700.437876	1494.120201	-173.322162	758.883842	1415.013813	-304.400236	649.1451479999999	1504.868975	-346.093321	628.994242	1427.385809	-96.206684	551.478296	1367.973834	-130.336594	563.673364	1318.466675	-71.228053	506.0732	1226.060346	-43.572516	494.962235	1214.132142	-122.41203	681.188104	1360.234884	-580.928692	630.0223549999999	1275.911279	-549.723947	647.370778	1212.628211	-596.06001	663.2353450000001	1127.003035	-618.758465	633.629497	1117.679997	-545.57759	588.037684	1152.360956	-30.966714	710.102668	1052.430279	-61.73931	650.6017859999999	1012.010942	-55.08277	770.416926	1111.78965	-590.487753	900.2403890000001	1095.092876	-491.625757	894.270083	1031.147072	-523.78873	
